<svg xmlns="http://www.w3.org/2000/svg" xmlns:xlink="http://www.w3.org/1999/xlink" width="38.377" height="31.923" viewBox="0 0 38.377 31.923"><defs><clipPath id="a"><path d="M0,0H38.377V31.923H0Z" transform="translate(1125 376)" fill="none"/></clipPath></defs><g transform="translate(-1125 -376)"><path d="M0,0H38.377V31.923H0Z" transform="translate(1125 376)" fill="none"/><g clip-path="url(#a)"><path d="M34.443,3.374a13.9,13.9,0,0,1-2.413.811,7.491,7.491,0,0,0,1.986-3.151.394.394,0,0,0-.577-.458A13.953,13.953,0,0,1,29.75,2.094a.944.944,0,0,1-.231.029.98.98,0,0,1-.646-.246A7.563,7.563,0,0,0,23.88,0,8.1,8.1,0,0,0,21.49.368a7.294,7.294,0,0,0-4.927,5.247,7.988,7.988,0,0,0-.179,2.768.269.269,0,0,1-.068.211.28.28,0,0,1-.208.094h-.027a19.808,19.808,0,0,1-13.6-7.237.4.4,0,0,0-.647.05,7.5,7.5,0,0,0,1.228,9.136,6.778,6.778,0,0,1-1.721-.664.4.4,0,0,0-.586.339,7.524,7.524,0,0,0,4.407,6.933l-.161,0a6.815,6.815,0,0,1-1.271-.121.394.394,0,0,0-.45.506,7.554,7.554,0,0,0,5.974,5.124,13.963,13.963,0,0,1-7.8,2.359H.583a.577.577,0,0,0-.565.434A.594.594,0,0,0,.3,26.2,20.773,20.773,0,0,0,10.711,29,21.064,21.064,0,0,0,19.6,27.121a19.632,19.632,0,0,0,6.507-4.857A21.28,21.28,0,0,0,30.1,15.617a20.927,20.927,0,0,0,1.354-7.275V8.227a1.277,1.277,0,0,1,.481-1,14.875,14.875,0,0,0,3-3.28.394.394,0,0,0-.488-.578" transform="translate(1127 378)" fill="#b019d4"/></g></g></svg>