<svg xmlns="http://www.w3.org/2000/svg" width="30.4" height="30.4" viewBox="0 0 30.4 30.4"><path d="M26.3,0H4.1A4.1,4.1,0,0,0,0,4.1V26.3a4.1,4.1,0,0,0,4.1,4.1H15.049l.019-10.863H12.245a.666.666,0,0,1-.666-.663l-.014-3.5a.666.666,0,0,1,.666-.668h2.817V11.32c0-3.927,2.4-6.065,5.9-6.065h2.874a.666.666,0,0,1,.666.666V8.874a.666.666,0,0,1-.666.666H22.06c-1.9,0-2.274.905-2.274,2.234V14.7h4.186a.666.666,0,0,1,.661.744l-.415,3.5a.666.666,0,0,1-.661.587H19.805L19.787,30.4H26.3a4.1,4.1,0,0,0,4.1-4.1V4.1A4.1,4.1,0,0,0,26.3,0" fill="#b019d4"/></svg>