<svg xmlns="http://www.w3.org/2000/svg" width="33.412" height="31.933" viewBox="0 0 33.412 31.933"><path d="M0,21.557H7.178V0H0Z" transform="translate(0.413 10.376)" fill="#b019d4"/><path d="M19.6,2.469A7.726,7.726,0,0,0,13.618,0a8.622,8.622,0,0,0-2.491.337,5.652,5.652,0,0,0-1.892.946A9.281,9.281,0,0,0,8.005,2.414a9.336,9.336,0,0,0-.848,1.151V.5H0L.022,1.544Q.044,2.589.044,7.983T0,22.057H7.157V10.028A5.254,5.254,0,0,1,7.4,8.265a4.62,4.62,0,0,1,1.381-1.86,3.522,3.522,0,0,1,2.3-.751,3.1,3.1,0,0,1,2.752,1.294,6.294,6.294,0,0,1,.881,3.578V22.056h7.157V9.7q0-4.764-2.262-7.232" transform="translate(11.55 9.876)" fill="#b019d4"/><path d="M4.046,0A4.1,4.1,0,0,0,1.12,1.055,3.5,3.5,0,0,0,0,3.72,3.565,3.565,0,0,0,1.088,6.373,3.926,3.926,0,0,0,3.959,7.439H4A4.1,4.1,0,0,0,6.95,6.373a3.444,3.444,0,0,0,1.1-2.654A3.628,3.628,0,0,0,6.939,1.055,3.977,3.977,0,0,0,4.046,0" transform="translate(0 0)" fill="#b019d4"/></svg>