<svg xmlns="http://www.w3.org/2000/svg" xmlns:xlink="http://www.w3.org/1999/xlink" width="355.993" height="58.143" viewBox="0 0 355.993 58.143">
  <defs>
    <clipPath id="clip-path">
      <path id="Clip_8" data-name="Clip 8" d="M0,0H4.926V8.656H0Z" transform="translate(0.666 0.662)" fill="none"/>
    </clipPath>
    <clipPath id="clip-path-2">
      <path id="Clip_37" data-name="Clip 37" d="M0,58.143H355.993V0H0Z" transform="translate(0 0.8)" fill="none"/>
    </clipPath>
  </defs>
  <g id="Group_39" data-name="Group 39" transform="translate(0 -0.8)">
    <path id="Fill_1" data-name="Fill 1" d="M23.125,20.515a2.15,2.15,0,0,1-2.144,2.144H2.145A2.15,2.15,0,0,1,0,20.515V2.145A2.151,2.151,0,0,1,2.145,0h.638A2.15,2.15,0,0,1,4.926,2.145V15.59A2.15,2.15,0,0,0,7.07,17.733h13.91a2.151,2.151,0,0,1,2.144,2.144Z" transform="translate(157.76 1.341)" fill="#fefefe"/>
    <path id="Fill_3" data-name="Fill 3" d="M23.125,2.144A2.151,2.151,0,0,0,20.981,0H6.006A5.753,5.753,0,0,0,2.383,1.551l-.9.946A6.2,6.2,0,0,0,0,6.194v14.32a2.151,2.151,0,0,0,2.145,2.145h.637a2.151,2.151,0,0,0,2.145-2.145V7.07A2.151,2.151,0,0,1,7.07,4.926h13.91a2.151,2.151,0,0,0,2.144-2.144Z" transform="translate(0 1.342)" fill="#fefefe"/>
    <path id="Fill_5" data-name="Fill 5" d="M25.112,21.158c.774.89.442,1.618-.737,1.618h-1.57a5.421,5.421,0,0,1-3.562-1.609L6.344,6.534c-.78-.885-1.418-.644-1.418.535V20.633a2.15,2.15,0,0,1-2.144,2.143H2.144A2.15,2.15,0,0,1,0,20.633V2.143A2.15,2.15,0,0,1,2.144,0H4.582a5.366,5.366,0,0,1,3.55,1.618Z" transform="translate(328.919 1.206)" fill="#fefefe"/>
    <g id="Group_9" data-name="Group 9" transform="translate(350.4 0.543)">
      <path id="Clip_8-2" data-name="Clip 8" d="M0,0H4.926V8.656H0Z" transform="translate(0.666 0.662)" fill="none"/>
      <g id="Group_9-2" data-name="Group 9" clip-path="url(#clip-path)">
        <path id="Fill_7" data-name="Fill 7" d="M1.38,5.528A6.546,6.546,0,0,1,0,1.944,2.058,2.058,0,0,1,2.144,0h.638A2.151,2.151,0,0,1,4.927,2.144V7.6c0,1.18-.622,1.406-1.381.5L1.38,5.528" transform="translate(0.666 0.662)" fill="#b019d4"/>
      </g>
    </g>
    <path id="Fill_10" data-name="Fill 10" d="M4.926,20.845a2.15,2.15,0,0,1-2.144,2.144H2.143A2.15,2.15,0,0,1,0,20.845V2.145A2.15,2.15,0,0,1,2.143,0h.638A2.15,2.15,0,0,1,4.926,2.145Z" transform="translate(272.67 0.876)" fill="#fefefe"/>
    <path id="Fill_12" data-name="Fill 12" d="M27.643,2.144A2.15,2.15,0,0,0,25.5,0H2.144A2.15,2.15,0,0,0,0,2.144v.638A2.151,2.151,0,0,0,2.144,4.926h7.07A2.15,2.15,0,0,1,11.358,7.07V20.461A2.15,2.15,0,0,0,13.5,22.606h.638a2.151,2.151,0,0,0,2.145-2.145V7.07a2.15,2.15,0,0,1,2.143-2.143H25.5a2.151,2.151,0,0,0,2.144-2.144Z" transform="translate(232.555 1.259)" fill="#fefefe"/>
    <path id="Fill_14" data-name="Fill 14" d="M27.559,11.785c0,6.51-6.17,11.785-13.78,11.785S0,18.294,0,11.785,6.17,0,13.779,0s13.78,5.276,13.78,11.785" transform="translate(289.585 0.8)" fill="#fefefe"/>
    <path id="Fill_16" data-name="Fill 16" d="M3.3.734A1.379,1.379,0,0,0,.869.722l-.546.786c-.672.968-.259,1.76.921,1.76h1.64c1.178,0,1.6-.8.936-1.772Z" transform="translate(194.363 20.75)" fill="#b019d4"/>
    <path id="Fill_18" data-name="Fill 18" d="M10.844,20.332a4.615,4.615,0,0,0,3.369,1.761h2.306c1.178,0,1.593-.793.918-1.761L3.8.727a1.394,1.394,0,0,0-2.448,0L.505,1.947a3.318,3.318,0,0,0,0,3.52Z" transform="translate(206.946 1.925)" fill="#fefefe"/>
    <path id="Fill_20" data-name="Fill 20" d="M.834,2.534a1.379,1.379,0,0,0,2.432.012l.546-.786C4.485.793,4.071,0,2.892,0H1.251C.072,0-.349.8.315,1.772Z" transform="translate(103.02 0.891)" fill="#b019d4"/>
    <path id="Fill_22" data-name="Fill 22" d="M6.917,1.761A4.616,4.616,0,0,0,3.549,0H1.243C.064,0-.351.794.323,1.761L13.96,21.366a1.394,1.394,0,0,0,2.448,0l.848-1.22a3.318,3.318,0,0,0,0-3.52Z" transform="translate(76.81 0.89)" fill="#fefefe"/>
    <path id="Fill_24" data-name="Fill 24" d="M19.365,1.658a1.954,1.954,0,0,1-2.144,1.658H2.146A1.955,1.955,0,0,1,0,1.658,1.955,1.955,0,0,1,2.146,0H17.221a1.955,1.955,0,0,1,2.144,1.658" transform="translate(120.068 10.843)" fill="#fefefe"/>
    <path id="Fill_26" data-name="Fill 26" d="M0,2.062A2.11,2.11,0,0,1,2.144,0H22.806A2.11,2.11,0,0,1,24.95,2.062a2.11,2.11,0,0,1-2.144,2.062H2.144A2.11,2.11,0,0,1,0,2.062" transform="translate(120.069 1.112)" fill="#fefefe"/>
    <path id="Fill_28" data-name="Fill 28" d="M0,2.061A2.11,2.11,0,0,1,2.144,0H22.806A2.11,2.11,0,0,1,24.95,2.061a2.11,2.11,0,0,1-2.144,2.062H2.144A2.11,2.11,0,0,1,0,2.061" transform="translate(120.069 19.675)" fill="#fefefe"/>
    <path id="Fill_30" data-name="Fill 30" d="M19.365,1.658a1.954,1.954,0,0,1-2.144,1.658H2.146A1.955,1.955,0,0,1,0,1.658,1.955,1.955,0,0,1,2.146,0H17.221a1.955,1.955,0,0,1,2.144,1.658" transform="translate(37.886 10.843)" fill="#fefefe"/>
    <path id="Fill_32" data-name="Fill 32" d="M0,2.062A2.11,2.11,0,0,1,2.144,0H22.806A2.11,2.11,0,0,1,24.95,2.062a2.11,2.11,0,0,1-2.144,2.062H2.144A2.11,2.11,0,0,1,0,2.062" transform="translate(37.886 1.112)" fill="#fefefe"/>
    <path id="Fill_34" data-name="Fill 34" d="M0,2.061A2.11,2.11,0,0,1,2.144,0H22.806A2.11,2.11,0,0,1,24.95,2.061a2.11,2.11,0,0,1-2.144,2.062H2.144A2.11,2.11,0,0,1,0,2.061" transform="translate(37.886 19.675)" fill="#fefefe"/>
    <path id="Clip_37-2" data-name="Clip 37" d="M0,58.143H355.993V0H0Z" transform="translate(0 0.8)" fill="none"/>
    <g id="Mask_Group_7" data-name="Mask Group 7" clip-path="url(#clip-path-2)">
      <path id="Fill_36" data-name="Fill 36" d="M42.575,14.273a5.8,5.8,0,0,1-4.137-1.594,5.574,5.574,0,0,1-1.592-4.01V8.637a5.6,5.6,0,0,1,1.619-3.979A5.714,5.714,0,0,1,42.559,3,6.025,6.025,0,0,1,46.84,4.5L45.33,6.318a4,4,0,0,0-2.849-1.1,3.274,3.274,0,0,0-3.13,3.394v.03a3.27,3.27,0,0,0,3.3,3.456,3.834,3.834,0,0,0,2.258-.654V9.883H42.5V7.812h4.731v4.734A7.032,7.032,0,0,1,42.575,14.273Zm80.852-.186H115.6V3.19h2.4v8.717h5.432v2.18Zm-43.8,0h-2.4V5.4H73.911V3.19H82.94V5.4H79.623v8.686ZM62,14.087H59.6V3.19H62v10.9Zm-37.36,0h-2.4V3.19h2.4v10.9Zm-19.622,0A4.893,4.893,0,0,1,0,9.344,4.893,4.893,0,0,1,5.02,4.6a5.219,5.219,0,0,1,2.143.454V1.389A1.327,1.327,0,0,1,8.415,0h.373A1.328,1.328,0,0,1,10.04,1.389v8.3a1.206,1.206,0,0,1-.061.392A4.685,4.685,0,0,1,8.3,12.935,5.192,5.192,0,0,1,5.02,14.087Z" transform="translate(116.832 44.67)" fill="#b019d4"/>
      <path id="Fill_38" data-name="Fill 38" d="M4.663,0,0,10.961H2.735L5.75,3.3l3.014,7.666h2.8L6.9,0Z" transform="translate(209.226 47.764)" fill="#b019d4"/>
    </g>
  </g>
</svg>
