<svg xmlns="http://www.w3.org/2000/svg" xmlns:xlink="http://www.w3.org/1999/xlink" width="79.848" height="112.031" viewBox="0 0 79.848 112.031"><defs><clipPath id="a"><path d="M0,0H79.848V112.031H0Z" transform="translate(0 0.174)" fill="none"/></clipPath></defs><g transform="translate(0 -0.267)"><g transform="translate(0 0.093)"><path d="M0,0H79.848V112.031H0Z" transform="translate(0 0.174)" fill="none"/><g clip-path="url(#a)"><path d="M69.889,0H66.926c-5.477,0-9.959,4.969-9.959,11.042V40.193a41.706,41.706,0,0,0-17.043-3.6C17.874,36.59,0,53.479,0,74.311s17.874,37.72,39.924,37.72c19.936,0,36.458-13.807,39.441-31.851a9.623,9.623,0,0,0,.482-3.128V11.042C79.848,4.969,75.366,0,69.889,0" transform="translate(0 0.174)" fill="#fff"/></g></g><path d="M36.8,3.255A3.347,3.347,0,0,0,33.387,0H9.558A9.382,9.382,0,0,0,3.791,2.356L2.355,3.794A9.166,9.166,0,0,0,0,9.4v21.74A3.346,3.346,0,0,0,3.413,34.4H4.428a3.346,3.346,0,0,0,3.411-3.255V10.733a3.346,3.346,0,0,1,3.413-3.254H33.387A3.347,3.347,0,0,0,36.8,4.224Z" transform="translate(21.6 57.293)" fill="#1b1926"/></g></svg>