<svg xmlns="http://www.w3.org/2000/svg" width="77.4" height="64.461" viewBox="0 0 77.4 64.461">
  <g id="Group_21" data-name="Group 21" transform="translate(1.5 1.5)">
    <path id="Combined_Shape_Copy" data-name="Combined Shape Copy" d="M0,27.5a27.5,27.5,0,1,1,27.5,27.5H0l3.919-3.919a6.47,6.47,0,0,0,.763-8.231A26.532,26.532,0,0,1,0,27.5Z" transform="translate(0 0)" fill="none" stroke="#b019d4" stroke-linecap="round" stroke-linejoin="round" stroke-miterlimit="10" stroke-width="3"/>
    <circle id="Oval" cx="21.026" cy="21.026" r="21.026" transform="translate(6.47 6.47)" fill="#4d1961"/>
    <path id="Rectangle" d="M0,1.617H19.409" transform="translate(17.791 22.643)" fill="none" stroke="#b019d4" stroke-linecap="round" stroke-linejoin="round" stroke-miterlimit="10" stroke-width="3"/>
    <path id="Rectangle_Copy" data-name="Rectangle Copy" d="M0,1.617H12.939" transform="translate(17.791 29.113)" fill="none" stroke="#b019d4" stroke-linecap="round" stroke-linejoin="round" stroke-miterlimit="10" stroke-width="3"/>
    <path id="Combined_Shape_Copy_2" data-name="Combined Shape Copy 2" d="M17.84,0A25.079,25.079,0,0,1,33.946,23.42a24.191,24.191,0,0,1-4.269,13.992,5.9,5.9,0,0,0,.7,7.5l3.573,3.573H8.877A25.013,25.013,0,0,1,0,46.872" transform="translate(40.454 12.972)" fill="none" stroke="#b019d4" stroke-linecap="round" stroke-linejoin="round" stroke-miterlimit="10" stroke-width="3"/>
  </g>
</svg>
