<svg xmlns="http://www.w3.org/2000/svg" width="65" height="65" viewBox="0 0 65 65">
  <g id="Group_6" data-name="Group 6" transform="translate(1.5 1.5)">
    <circle id="Oval_11" data-name="Oval 11" cx="31" cy="31" r="31" stroke-width="3" stroke="#b019d4" stroke-linecap="round" stroke-linejoin="round" stroke-miterlimit="10" fill="none"/>
    <path id="Combined_Shape" data-name="Combined Shape" d="M25.609,51.217A25.609,25.609,0,1,1,51.217,25.609,25.609,25.609,0,0,1,25.609,51.217Z" transform="translate(5.391 5.391)" fill="#4d1961"/>
    <path id="Line" d="M1.348,0V32.348" transform="translate(29.652 14.826)" fill="none" stroke="#b019d4" stroke-linecap="round" stroke-linejoin="round" stroke-miterlimit="10" stroke-width="3"/>
    <path id="Line_Copy" data-name="Line Copy" d="M1.348,0V21.565" transform="translate(36.391 20.217)" fill="none" stroke="#b019d4" stroke-linecap="round" stroke-linejoin="round" stroke-miterlimit="10" stroke-width="3"/>
    <path id="Line_Copy_2" data-name="Line Copy 2" d="M1.348,0V10.783" transform="translate(43.13 25.609)" fill="none" stroke="#b019d4" stroke-linecap="round" stroke-linejoin="round" stroke-miterlimit="10" stroke-width="3"/>
    <path id="Line_Copy_3" data-name="Line Copy 3" d="M1.348,0V2.7" transform="translate(49.87 29.652)" fill="none" stroke="#b019d4" stroke-linecap="round" stroke-linejoin="round" stroke-miterlimit="10" stroke-width="3"/>
    <path id="Line_Copy_6" data-name="Line Copy 6" d="M1.348,0V2.7" transform="translate(9.435 29.652)" fill="none" stroke="#b019d4" stroke-linecap="round" stroke-linejoin="round" stroke-miterlimit="10" stroke-width="3"/>
    <path id="Line_Copy_5" data-name="Line Copy 5" d="M1.348,0V10.783" transform="translate(16.174 25.609)" fill="none" stroke="#b019d4" stroke-linecap="round" stroke-linejoin="round" stroke-miterlimit="10" stroke-width="3"/>
    <path id="Line_Copy_4" data-name="Line Copy 4" d="M1.348,0V21.565" transform="translate(22.913 20.217)" fill="none" stroke="#b019d4" stroke-linecap="round" stroke-linejoin="round" stroke-miterlimit="10" stroke-width="3"/>
  </g>
</svg>
