<svg xmlns="http://www.w3.org/2000/svg" width="69" height="51.783" viewBox="0 0 69 51.783">
  <g id="Group_10" data-name="Group 10" transform="translate(1.5 1.5)">
    <path id="Rectangle_40" data-name="Rectangle 40" d="M18.652,43.043H5.739A5.739,5.739,0,0,1,0,37.3V5.739A5.739,5.739,0,0,1,5.739,0H60.261A5.739,5.739,0,0,1,66,5.739V37.3a5.739,5.739,0,0,1-5.739,5.739H47.348" transform="translate(0 0)" fill="none" stroke="#b019d4" stroke-linecap="round" stroke-linejoin="round" stroke-miterlimit="10" stroke-width="3"/>
    <path id="Rectangle_2" data-name="Rectangle 2" d="M0,2.87A2.87,2.87,0,0,1,2.87,0H51.652a2.87,2.87,0,0,1,2.87,2.87V28.7a2.87,2.87,0,0,1-2.87,2.87H38.247a5.739,5.739,0,0,1-4.058-1.681l-6.928-6.928-6.928,6.928a5.739,5.739,0,0,1-4.058,1.681H2.87A2.87,2.87,0,0,1,0,28.7Z" transform="translate(5.739 5.739)" fill="#4d1961"/>
    <path id="Line" d="M10.043,0,0,10.043" transform="translate(11.478 11.478)" fill="none" stroke="#b019d4" stroke-linecap="round" stroke-linejoin="round" stroke-miterlimit="10" stroke-width="3"/>
    <path id="Line_Copy" data-name="Line Copy" d="M1.435,0,0,1.435" transform="translate(11.478 11.478)" fill="none" stroke="#b019d4" stroke-linecap="round" stroke-linejoin="round" stroke-miterlimit="10" stroke-width="3"/>
    <path id="Rectangle" d="M11.478,0,22.957,12.913H0Z" transform="translate(21.522 35.87)" fill="none" stroke="#b019d4" stroke-linecap="round" stroke-linejoin="round" stroke-miterlimit="10" stroke-width="3"/>
  </g>
</svg>
