<svg xmlns="http://www.w3.org/2000/svg" width="66.36" height="66.36" viewBox="0 0 66.36 66.36">
  <g id="Group_16" data-name="Group 16" transform="translate(1.5 1.5)">
    <path id="Combined_Shape" data-name="Combined Shape" d="M42.768,39.6A3.168,3.168,0,0,1,39.6,42.768H3.168A3.168,3.168,0,0,1,0,39.6V3.168A3.168,3.168,0,0,1,3.168,0H39.6a3.168,3.168,0,0,1,3.168,3.168Z" transform="translate(6.336 6.336)" fill="#4d1961"/>
    <circle id="Oval_2_Copy" data-name="Oval 2 Copy" cx="6.336" cy="6.336" r="6.336" transform="translate(7.92 7.92)" fill="#4d1961"/>
    <rect id="Rectangle" width="55.44" height="55.44" rx="6.336" stroke-width="3" transform="translate(0 0)" stroke="#b019d4" stroke-linecap="round" stroke-linejoin="round" stroke-miterlimit="10" fill="none"/>
    <path id="Rectangle_Copy_2" data-name="Rectangle Copy 2" d="M50.688,0V44.352a6.336,6.336,0,0,1-6.336,6.336H0" transform="translate(12.672 12.672)" fill="none" stroke="#b019d4" stroke-linecap="round" stroke-linejoin="round" stroke-miterlimit="10" stroke-width="3"/>
    <circle id="Oval_2" data-name="Oval 2" cx="6.336" cy="6.336" r="6.336" transform="translate(7.92 7.92)" stroke-width="3" stroke="#b019d4" stroke-linecap="round" stroke-linejoin="round" stroke-miterlimit="10" fill="none"/>
    <path id="Rectangle_2" data-name="Rectangle 2" d="M0,11.088,9.5,0,15.84,6.336" transform="translate(7.92 30.096)" fill="none" stroke="#b019d4" stroke-linecap="round" stroke-linejoin="round" stroke-miterlimit="10" stroke-width="3"/>
    <path id="Rectangle_2_Copy" data-name="Rectangle 2 Copy" d="M0,20.592,17.424,0l7.92,9.5" transform="translate(22.176 19.008)" fill="none" stroke="#b019d4" stroke-linecap="round" stroke-linejoin="round" stroke-miterlimit="10" stroke-width="3"/>
  </g>
</svg>
