<svg xmlns="http://www.w3.org/2000/svg" width="65" height="65" viewBox="0 0 65 65">
  <g id="Group_5" data-name="Group 5" transform="translate(1.5 1.5)">
    <path id="Rectangle_15" data-name="Rectangle 15" d="M6.2,62A6.2,6.2,0,0,1,0,55.8V6.2A6.2,6.2,0,0,1,6.2,0H55.8A6.2,6.2,0,0,1,62,6.2V39.548a9.3,9.3,0,0,1-2.724,6.576L46.124,59.276A9.3,9.3,0,0,1,39.548,62Z" fill="none" stroke="#b019d4" stroke-linecap="round" stroke-linejoin="round" stroke-miterlimit="10" stroke-width="3"/>
    <path id="Rectangle_15_Copy" data-name="Rectangle 15 Copy" d="M3.1,49.6A3.1,3.1,0,0,1,0,46.5V3.1A3.1,3.1,0,0,1,3.1,0H46.5a3.1,3.1,0,0,1,3.1,3.1V31.532a6.2,6.2,0,0,1-1.816,4.384L35.916,47.784A6.2,6.2,0,0,1,31.532,49.6Z" transform="translate(6.2 6.2)" fill="#4d1961"/>
    <circle id="Oval_Copy_3" data-name="Oval Copy 3" cx="4.65" cy="4.65" r="4.65" transform="translate(15.5 18.6)" fill="#4d1961"/>
    <circle id="Oval_Copy_2" data-name="Oval Copy 2" cx="4.65" cy="4.65" r="4.65" transform="translate(37.2 18.6)" fill="#4d1961"/>
    <circle id="Oval" cx="4.65" cy="4.65" r="4.65" stroke-width="3" transform="translate(15.5 18.6)" stroke="#b019d4" stroke-linecap="round" stroke-linejoin="round" stroke-miterlimit="10" fill="none"/>
    <circle id="Oval_Copy" data-name="Oval Copy" cx="4.65" cy="4.65" r="4.65" transform="translate(37.2 18.6)" stroke-width="3" stroke="#b019d4" stroke-linecap="round" stroke-linejoin="round" stroke-miterlimit="10" fill="none"/>
    <path id="Path" d="M0,0S5.32,6.2,12.4,6.2,24.8,0,24.8,0" transform="translate(18.6 40.3)" fill="none" stroke="#b019d4" stroke-linecap="round" stroke-linejoin="round" stroke-miterlimit="10" stroke-width="3"/>
  </g>
</svg>
