<svg xmlns="http://www.w3.org/2000/svg" width="64.243" height="63.621" viewBox="0 0 64.243 63.621">
  <g id="Group_22" data-name="Group 22" transform="translate(2.121 1.5)">
    <path id="Oval_6" data-name="Oval 6" d="M46.753,5.11A30,30,0,1,0,30,60h0A30,30,0,0,0,54.81,13.129" fill="none" stroke="#b019d4" stroke-linecap="round" stroke-linejoin="round" stroke-miterlimit="10" stroke-width="3"/>
    <circle id="Oval_6_Copy" data-name="Oval 6 Copy" cx="24" cy="24" r="24" transform="translate(6 6)" fill="#4d1961"/>
    <circle id="Oval_7_Copy" data-name="Oval 7 Copy" cx="7.5" cy="7.5" r="7.5" transform="translate(22.5 22.5)" fill="#4d1961"/>
    <path id="Oval_6_Copy_2" data-name="Oval 6 Copy 2" d="M30.59,1.5A22.5,22.5,0,1,0,22.5,45h0A22.514,22.514,0,0,0,43.481,14.355" transform="translate(7.5 7.5)" fill="none" stroke="#b019d4" stroke-linecap="round" stroke-linejoin="round" stroke-miterlimit="10" stroke-width="3"/>
    <path id="Oval_6_Copy_4" data-name="Oval 6 Copy 4" d="M20.391,1A15,15,0,1,0,15,30h0A15.009,15.009,0,0,0,28.957,9.492" transform="translate(15 15)" fill="none" stroke="#b019d4" stroke-linecap="round" stroke-linejoin="round" stroke-miterlimit="10" stroke-width="3"/>
    <path id="Rectangle_23" data-name="Rectangle 23" d="M0,16.5,16.5,0" transform="translate(30 13.5)" fill="none" stroke="#b019d4" stroke-linecap="round" stroke-linejoin="round" stroke-miterlimit="10" stroke-width="3"/>
    <path id="Rectangle" d="M0,7.5,7.493,0,9,6l6,1.5L7.5,15l-6-1.5Z" transform="translate(45 0)" fill="none" stroke="#b019d4" stroke-linecap="round" stroke-linejoin="round" stroke-miterlimit="10" stroke-width="3"/>
    <path id="Rectangle_24" data-name="Rectangle 24" d="M4.5,0,0,4.5" transform="translate(0 55.5)" fill="none" stroke="#b019d4" stroke-linecap="round" stroke-linejoin="round" stroke-miterlimit="10" stroke-width="3"/>
    <path id="Rectangle_24_Copy" data-name="Rectangle 24 Copy" d="M0,0,4.5,4.5" transform="translate(55.5 55.5)" fill="none" stroke="#b019d4" stroke-linecap="round" stroke-linejoin="round" stroke-miterlimit="10" stroke-width="3"/>
    <path id="Oval_7" data-name="Oval 7" d="M7.5,0a7.5,7.5,0,0,0,0,15h0A7.5,7.5,0,0,0,15,7.5" transform="translate(22.5 22.5)" fill="none" stroke="#b019d4" stroke-linecap="round" stroke-linejoin="round" stroke-miterlimit="10" stroke-width="3"/>
  </g>
</svg>
